<svg width="754" height="170" viewBox="0 0 754 170" fill="none" xmlns="http://www.w3.org/2000/svg">
<path d="M73.8 0.0499878L0.25 42.5V127.5L73.85 169.95L147.4 127.5V42.5L73.8 0.0499878ZM85.95 85L115.5 67.95V38.15L135.25 49.55V120.5L115.5 131.85V102.05L85.95 85ZM103.35 109.05V138.85L73.8 155.9L44.25 138.85V109.05L73.8 92L103.35 109.05ZM44.25 60.95V31.15L73.8 14.1L103.35 31.15V60.95L73.8 78L44.25 60.95ZM61.65 85L32.1 102.05V131.85L12.35 120.45V49.55L32.1 38.15V67.95L61.65 85Z" fill="white"/>
<path d="M189.65 42.4H203.85V77.15H241.1V42.4H255.3V127.65H241.1V90.3H203.85V127.65H189.65V42.4Z" fill="white"/>
<path d="M291.7 127.65H285.75L262.7 63.2H278.1L295.05 117.25L312 63.2H326.55L295.75 154.85H283.2L291.7 127.65Z" fill="white"/>
<path d="M336.1 81.8L334.9 63.2H347L348.65 73.95C350.8 69.55 356.9 61.65 371.95 61.65V74.55C355.35 74.55 350.95 86.85 350 90.65V127.65H336.15V81.8H336.1Z" fill="white"/>
<path d="M407.75 129.3C384.7 129.3 377.45 116.9 377.45 95.5C377.45 74.1 384.75 61.5 407.75 61.5C430.65 61.4 438.05 74.15 438.05 95.5C438.05 116.85 430.65 129.3 407.75 129.3ZM407.75 117.85C419.95 117.85 423.85 110.8 423.85 95.55C423.85 80.3 419.9 73 407.75 73C395.45 73 391.5 80.3 391.5 95.55C391.5 110.8 395.45 117.85 407.75 117.85Z" fill="white"/>
<path d="M460.151 50.65H432.601V43.15H496.101V50.65H468.301L467.951 127.65H459.851L460.151 50.65Z" fill="white"/>
<path d="M494.85 81.8L493.65 63.75H500.45L501.9 76.3C503.8 71.75 509.65 62.55 525.05 62.55V70C508.2 70 503.7 83.75 502.75 87.9V127.65H494.85V81.8Z" fill="white"/>
<path d="M574.25 118.8C570.05 124.3 562.45 128.95 550.75 128.95C534.9 128.95 528.65 121.65 528.65 109.4C528.65 93.75 539.15 89 555.65 89C564.35 89 570.35 89.6 573.55 90.05C573.3 75.15 571.65 69.4 556.5 69.4C541 69.4 538.45 77.5 538.45 83.15H531.15C531.15 75.5 533.65 62.75 556.1 62.75C582.25 62.75 581.4 76.5 581.4 96.05V111.55L582.7 127.55H575.4L574.25 118.8ZM573.55 107.95V96.75C570.55 96.4 565.2 95.8 557.45 95.8C543.95 95.8 536.8 99 536.8 109.05C536.8 116.35 540.25 122.05 552.2 122.05C565.75 122.05 573.55 113.8 573.55 107.95Z" fill="white"/>
<path d="M639.65 117.95C637.25 122.35 631.3 128.7 617.2 128.7C599.3 128.7 592.25 115.95 592.25 96C592.25 75.95 599.2 62.7 616.95 62.7C629.1 62.7 636.05 69.25 638.8 72.6V37.85H646.55V110.9L647.75 127.6H640.95L639.65 117.95ZM638.8 110.2V81.1C636.55 77.4 630.35 69.9 618.65 69.9C605.9 69.9 600.15 79.7 600.15 96.05C600.15 112.3 605.9 121.45 618.65 121.45C630.45 121.45 636.2 115.1 638.8 110.2Z" fill="white"/>
<path d="M685.151 128.95C664.151 128.95 657.351 116.4 657.351 95.9C657.351 75.4 664.151 62.5 685.151 62.5C705.201 62.5 712.601 73.35 712.601 97.25H665.451C665.701 114.2 671.051 122.1 685.151 122.1C700.201 122.1 704.151 113.4 704.151 108.75H712.151C712.101 115.1 708.051 128.95 685.151 128.95ZM665.551 90.15H704.201C702.901 75.25 696.801 69.25 685.101 69.25C672.251 69.25 666.651 76.3 665.551 90.15Z" fill="white"/>
<path d="M723.551 81.8L722.351 63.75H729.151L730.601 76.3C732.501 71.75 738.351 62.55 753.751 62.55V70C736.901 70 732.401 83.75 731.451 87.9V127.65H723.551V81.8Z" fill="white"/>
</svg>
